PathFileType	4	(X/Y/Z)	 s11c0401.trc
DataRate	CameraRate	NumFrames	NumMarkers	Units	OrigDataRate	OrigDataStartFrame	OrigNumFrames
200	200	4	48	mm	200	751	2000
Frame#	Time	racr			lacr			c7			jug			rlel			rdr			llel			ldr			s2			lic			ric			lasi			rasi			rpsi			lpsi			rgt			lgt			rth1			rth2			rth3			rth4			rlfc			rmfc			rsh1			rsh2			rsh3			rsh4			rlmal			rcal			rtoe			rmt5			lth1			lth2			lth4			lth3			llfc			lmfc			llmal			lcal			lmt5			lsh1			lsh2			lsh3			lsh4			ltoe			SBIKE			LBIKE			RBIKE			
		X1	Y1	Z1	X2	Y2	Z2	X3	Y3	Z3	X4	Y4	Z4	X5	Y5	Z5	X6	Y6	Z6	X7	Y7	Z7	X8	Y8	Z8	X9	Y9	Z9	X10	Y10	Z10	X11	Y11	Z11	X12	Y12	Z12	X13	Y13	Z13	X14	Y14	Z14	X15	Y15	Z15	X16	Y16	Z16	X17	Y17	Z17	X18	Y18	Z18	X19	Y19	Z19	X20	Y20	Z20	X21	Y21	Z21	X22	Y22	Z22	X23	Y23	Z23	X24	Y24	Z24	X25	Y25	Z25	X26	Y26	Z26	X27	Y27	Z27	X28	Y28	Z28	X29	Y29	Z29	X30	Y30	Z30	X31	Y31	Z31	X32	Y32	Z32	X33	Y33	Z33	X34	Y34	Z34	X35	Y35	Z35	X36	Y36	Z36	X37	Y37	Z37	X38	Y38	Z38	X39	Y39	Z39	X40	Y40	Z40	X41	Y41	Z41	X42	Y42	Z42	X43	Y43	Z43	X44	Y44	Z44	X45	Y45	Z45	X46	Y46	Z46	X47	Y47	Z47	X48	Y48	Z48	
751	3.7550	761.626755	1334.899551	-12.421221	758.197205	1346.346946	-341.877901	738.882204	1432.737120	-177.063512	708.195523	1250.597451	-183.862502	581.084292	1117.445987	91.769522	755.759120	960.214783	-31.716741	567.644654	1164.763141	-526.410244	769.343560	951.277925	-443.367674	127.911724	1306.175123	-228.132464	351.777062	1280.995874	-422.152177	327.075896	1269.821880	-18.281827	361.018194	1199.490483	-395.259388	336.774642	1204.876509	-65.416435	185.631592	1373.677127	-174.858382	184.536142	1363.798228	-266.010361	266.647459	1144.460418	-13.634510	232.552384	1156.684331	-436.533259	363.628857	1034.166904	-17.012799	438.175637	988.294942	-33.622802	477.595069	911.181266	-50.311768	463.104704	1013.599896	-42.659106	543.762075	827.494852	-71.229388	542.804944	809.137420	-196.895092	476.923188	677.321069	-58.830080	458.448439	592.611683	-78.879123	403.237606	525.741382	-77.828010	480.616494	586.364872	-110.897840	328.636830	410.640850	-88.363455	258.250224	403.156557	-135.978963	535.556674	324.506789	-127.098809	461.008615	308.482941	-59.177828	314.368289	1028.252431	-459.889832	372.949760	965.543648	-456.699820	405.227713	981.411530	-447.767866	393.479008	878.051961	-457.630065	439.362040	750.190052	-438.714994	450.836665	735.048112	-312.489536	109.743969	485.726845	-415.959942	49.838426	506.932018	-381.222494	128.216192	313.405318	-445.779119	342.610145	670.578081	-458.448952	296.231081	600.719436	-440.777899	218.620274	559.158798	-436.530211	319.400003	579.565952	-418.808259	200.848079	249.595050	-374.978056	-203.977998	960.106386	-261.256134	1.476187	82.834325	-460.921570	-15.173883	81.186122	-62.421217	
752	3.7600	762.643611	1335.167771	-13.996161	757.832853	1347.191964	-343.880137	739.282034	1433.222203	-178.495321	709.202940	1250.936816	-185.543224	582.299918	1118.392391	91.954710	755.829289	959.961506	-32.022685	567.441554	1163.862535	-526.626933	768.882617	951.099526	-443.516101	127.711044	1304.791562	-227.672066	351.409759	1281.164734	-421.652495	327.829356	1266.603353	-18.519785	360.584463	1199.255341	-394.629730	337.137742	1201.545161	-64.928177	185.612167	1371.891118	-173.710887	184.029630	1363.478273	-264.484514	264.770462	1140.468460	-13.946277	233.815879	1157.180433	-436.994770	359.598899	1028.375816	-17.080903	433.088783	980.808620	-33.297270	470.797586	903.047468	-50.286300	458.725917	1005.222235	-42.864414	534.949065	818.148832	-70.808083	533.484325	798.928320	-195.820031	469.283005	667.679081	-58.279534	452.496292	582.674744	-78.220067	398.523089	514.602577	-77.347291	475.093739	576.728668	-109.989262	326.397268	398.539738	-88.074630	256.317263	390.130151	-136.590955	534.007276	314.935840	-126.250947	459.698062	297.403043	-59.130337	317.925882	1029.707423	-460.346052	378.102928	968.769230	-457.563418	409.963254	985.356422	-448.379865	400.704500	881.714998	-458.439149	448.936717	755.272814	-438.866693	460.430526	740.201552	-312.591276	115.438689	496.265867	-415.963749	56.151223	518.741429	-380.829385	129.744632	323.472303	-445.539643	351.056632	676.899588	-458.485326	303.662510	607.708061	-440.640942	225.417929	567.423526	-436.331838	326.557783	586.378461	-418.626860	200.695512	257.730360	-374.943204	-203.958996	960.113755	-261.208794	1.499492	82.845998	-460.916966	-15.178136	81.181350	-62.415075	
753	3.7650	763.683708	1335.671455	-15.495623	757.480729	1348.172268	-345.970376	739.498455	1433.909424	-179.914151	710.089788	1251.660874	-187.334525	583.582072	1119.374828	92.060100	756.097245	959.871232	-32.076861	567.194328	1163.070323	-526.804082	768.388176	950.923846	-444.051152	129.060088	1302.882218	-228.807526	351.018120	1281.148847	-420.873737	328.314228	1263.520766	-18.109755	360.288631	1198.937062	-393.850192	337.664018	1198.115080	-64.301330	185.478677	1369.483554	-171.798763	184.758881	1362.405488	-264.440714	262.605392	1136.388380	-14.257584	234.826738	1157.569017	-437.216206	355.338049	1022.501878	-16.794451	427.597174	973.354690	-32.889997	463.711245	894.815268	-50.337882	454.304238	996.937705	-42.670785	525.825029	808.765255	-70.379668	523.916612	789.200436	-194.978465	461.213514	658.125599	-57.703804	446.104325	572.903480	-77.657916	393.362229	503.919417	-76.977090	469.108381	567.209246	-109.321043	323.604603	386.665371	-87.902710	253.583415	377.850816	-136.478923	531.805885	303.479628	-127.366706	457.617352	286.575134	-59.140765	321.430551	1031.573310	-461.277649	383.127321	972.092276	-458.334721	414.529091	989.363565	-448.756923	407.958073	885.516307	-459.251600	458.448400	760.594851	-439.008141	470.074692	745.743826	-312.607072	121.469411	506.697244	-415.894970	62.746699	530.358016	-380.408811	131.824142	333.889247	-445.924285	359.659849	683.376425	-458.437169	311.257580	614.825842	-440.456761	232.464863	575.739831	-436.087586	333.923149	593.274134	-418.222810	201.414079	266.085008	-374.944118	-203.918247	960.127288	-261.196802	1.499155	82.844513	-460.906995	-15.162731	81.123743	-62.369841	
754	3.7700	764.592683	1336.383348	-17.044049	757.063618	1349.157672	-348.025605	739.519356	1434.737429	-181.257103	711.118929	1252.107712	-189.119223	584.765155	1120.477954	91.818297	756.533913	959.944668	-31.807822	566.893726	1162.264199	-526.968255	767.406888	950.382930	-443.810890	128.714003	1301.201479	-228.158793	350.699268	1281.135846	-420.050419	329.020760	1260.115946	-18.104053	360.095085	1198.568164	-393.048786	338.467377	1194.633775	-63.599344	185.208031	1367.343282	-170.361565	184.870560	1361.145026	-264.880733	260.566137	1132.034842	-14.492914	235.744799	1157.938013	-437.237655	350.735652	1016.592358	-16.533218	421.993148	965.787828	-32.633641	456.431479	886.564156	-50.309694	449.214917	988.885871	-42.073088	516.158113	799.670480	-70.162158	513.281297	779.052217	-192.575265	452.670834	648.791294	-57.451520	439.392092	563.424384	-76.584488	387.691455	493.489062	-76.775608	462.716725	557.857087	-108.555057	320.275560	375.073291	-87.839042	250.271299	366.055130	-136.495470	529.013541	293.155181	-127.361237	454.908293	275.532957	-59.109766	324.829876	1033.423728	-462.134450	388.043676	975.497109	-458.915825	418.846175	993.574008	-448.800946	414.961927	889.539990	-460.066103	467.900748	766.166328	-439.085848	479.888946	751.492024	-312.520537	127.746548	516.988870	-415.670062	69.481852	541.653144	-380.009069	134.661139	343.928856	-445.692787	368.189880	689.971408	-458.161827	319.037682	622.214123	-440.162925	239.709297	584.012892	-435.833719	341.322164	600.293423	-417.891245	202.817119	274.530100	-374.846570	-203.887201	960.122418	-261.149634	1.507632	82.852991	-460.896829	-15.165336	81.126161	-62.367378	
